# xmcd CD Database Entry
#
# Track frame offsets:
# 150
# 43834
# 100336
# 146502
# 188154
# 241572
#
# Disc length: 4003 seconds
#
# Revision: 2
# Processed by: cddbd v1.4PL0 Copyright (c) Steve Scherf et al.
# Submitted via: tcd 2.0b
#
DISCID=490fa106
DTITLE=SANZA - groove minus one
DYEAR=1900
DGENRE=
TTITLE0=fiftyfifty
TTITLE1=oasis
TTITLE2=swop!
TTITLE3=king size
TTITLE4=on the cool side
TTITLE5=safety beat
EXTD=
EXTT0=
EXTT1=
EXTT2=
EXTT3=
EXTT4=
EXTT5=
PLAYORDER=
